# xmcd CD database file
#
# Track frame offsets:
#	150
#	13030
#	23900
#	34382
#	65177
#	77660
#	91885
#	107030
#	122772
#	148945
#	166815
#	178065
#	199580
#	211442
#	236122
#	255210
#	280595
#	298860
#	313782
#
# Disc length: 4366 seconds
#
# Revision: 0
# Processed by: cddbd v1.5.1PL2 Copyright (c) Steve Scherf et al.
# Submitted via: CDex 1.51
#
DISCID=17110c13
DTITLE=Various Artist - El Gran Tesoro De La Musica Cubana Vol. 5
DYEAR=2004
DGENRE=Salsa
TTITLE0=Los Munequitos de Matanzas/Glorias Cubanas
TTITLE1=Ramon Veloz y el Grupo Campo Alegre/Cuba, Que Linda Es Cuba
TTITLE2=Vicente Feliu y Silvio Rodriguez/Creeme
TTITLE3=Emiliano Salvador y su grupo/Preludio - Vision - Nueva Vision
TTITLE4=Pablo Milanes/Convergencia
TTITLE5=Beatriz Marquez/Mejor Concluir
TTITLE6=Lino Borges/Vida Consentida
TTITLE7=Grupo Manguare/Mujer, Si la Distancia Es Esa Huella
TTITLE8=Conjunto Son 14/A Bayamo En Coche
TTITLE9=Omara Portuondo/Lo Que Me Queda Por Vivir
TTITLE10=Leo Brouwer/Drume Negrita
TTITLE11=Manolo del Valle/Es Mejor Vivir Asi
TTITLE12=Grupo Sierra Maestra/Dame un Traguito
TTITLE13=Estrellas de Areito/Los Tamalitos de Olga
TTITLE14=Sara Gonzalez con el Grupo Guayacan/Un Amor de Millones
TTITLE15=Elena Burke y la Orquesta Aragon/Son al Son
TTITLE16=Celina Gonzalez/Yo Soy El Punto Cubano
TTITLE17=Merceditas Valdes/Lacho
TTITLE18=Santiago Feliu/Para Barbara
EXTD=YEAR: 2004
EXTT0=
EXTT1=
EXTT2=
EXTT3=
EXTT4=
EXTT5=
EXTT6=
EXTT7=
EXTT8=
EXTT9=
EXTT10=
EXTT11=
EXTT12=
EXTT13=
EXTT14=
EXTT15=
EXTT16=
EXTT17=
EXTT18=
PLAYORDER=
